<?xml version="1.0" encoding="UTF-8"?>
<!DOCTYPE svg PUBLIC "-//W3C//DTD SVG 1.1//EN" "http://www.w3.org/Graphics/SVG/1.1/DTD/svg11.dtd">
<!-- Creator: CorelDRAW 2019 (64-Bit) -->
<svg xmlns="http://www.w3.org/2000/svg" xml:space="preserve" width="48px" height="48px" version="1.1" style="shape-rendering:geometricPrecision; text-rendering:geometricPrecision; image-rendering:optimizeQuality; fill-rule:evenodd; clip-rule:evenodd"
viewBox="0 0 18.75 18.75"
 xmlns:xlink="http://www.w3.org/1999/xlink">
 <defs>
  <style type="text/css">
   <![CDATA[
    .fil0 {fill:none}
    .fil1 {fill:white}
   ]]>
  </style>
 </defs>
 <g id="Layer_x0020_1">
  <metadata id="CorelCorpID_0Corel-Layer"/>
  <g id="_1510132840320">
   <rect class="fil0" width="18.75" height="18.75"/>
   <path class="fil1" d="M13.08 5.52c-0.94,-0.87 -2.11,-1.3 -3.51,-1.3 -1.47,0 -2.72,0.49 -3.75,1.48 -1.04,0.99 -1.56,2.21 -1.56,3.68 0,1.41 0.5,2.62 1.48,3.63 0.99,1.02 2.31,1.52 3.98,1.52 1.01,0 1.99,-0.2 2.96,-0.62 0.32,-0.13 0.47,-0.49 0.34,-0.81l0 0c-0.13,-0.33 -0.5,-0.48 -0.83,-0.34 -0.84,0.36 -1.67,0.54 -2.47,0.54 -1.28,0 -2.27,-0.39 -2.97,-1.17 -0.71,-0.78 -1.06,-1.69 -1.06,-2.74 0,-1.14 0.38,-2.09 1.13,-2.86 0.75,-0.76 1.67,-1.14 2.77,-1.14 1.01,0 1.86,0.31 2.55,0.94 0.7,0.63 1.04,1.41 1.04,2.37 0,0.65 -0.16,1.19 -0.47,1.62 -0.32,0.43 -0.65,0.65 -0.99,0.65 -0.19,0 -0.28,-0.1 -0.28,-0.3 0,-0.16 0.01,-0.35 0.03,-0.57l0.4 -3.2 -1.35 0 -0.09 0.31c-0.34,-0.28 -0.72,-0.42 -1.13,-0.42 -0.64,0 -1.2,0.26 -1.66,0.78 -0.46,0.51 -0.69,1.18 -0.69,1.99 0,0.79 0.2,1.43 0.61,1.92 0.41,0.49 0.9,0.73 1.48,0.73 0.52,0 0.96,-0.22 1.32,-0.65 0.28,0.42 0.68,0.62 1.22,0.62 0.79,0 1.47,-0.34 2.05,-1.03 0.57,-0.69 0.86,-1.51 0.86,-2.48 0,-1.23 -0.47,-2.28 -1.41,-3.15zm-3.1 4.84c-0.24,0.32 -0.53,0.48 -0.86,0.48 -0.22,0 -0.4,-0.11 -0.54,-0.35 -0.14,-0.24 -0.21,-0.53 -0.21,-0.88 0,-0.43 0.1,-0.78 0.29,-1.05 0.2,-0.26 0.44,-0.4 0.72,-0.4 0.25,0 0.47,0.1 0.66,0.3 0.2,0.2 0.3,0.47 0.3,0.8 -0.01,0.41 -0.13,0.78 -0.36,1.1z"/>
  </g>
 </g>
</svg>
