<?xml version="1.0" encoding="UTF-8"?>
<!DOCTYPE svg PUBLIC "-//W3C//DTD SVG 1.1//EN" "http://www.w3.org/Graphics/SVG/1.1/DTD/svg11.dtd">
<!-- Creator: CorelDRAW 2019 (64-Bit) -->
<svg xmlns="http://www.w3.org/2000/svg" xml:space="preserve" width="48px" height="48px" version="1.1" style="shape-rendering:geometricPrecision; text-rendering:geometricPrecision; image-rendering:optimizeQuality; fill-rule:evenodd; clip-rule:evenodd"
viewBox="0 0 22.608 22.608"
 xmlns:xlink="http://www.w3.org/1999/xlink">
 <defs>
  <style type="text/css">
   <![CDATA[
    .fil0 {fill:none}
    .fil1 {fill:white}
   ]]>
  </style>
 </defs>
 <g id="Layer_x0020_1">
  <metadata id="CorelCorpID_0Corel-Layer"/>
  <g id="_2053597993136">
   <rect class="fil0" width="22.608" height="22.608"/>
   <path id="XMLID_497_" class="fil1" d="M5.399 11.085l2.821 1.053 1.092 3.512c0.069,0.225 0.344,0.308 0.527,0.158l1.572 -1.281c0.165,-0.135 0.4,-0.141 0.572,-0.016l2.836 2.059c0.196,0.142 0.472,0.035 0.521,-0.201l2.078 -9.994c0.053,-0.258 -0.2,-0.473 -0.445,-0.378l-11.578 4.466c-0.285,0.11 -0.283,0.515 0.004,0.622zm3.737 0.493l5.513 -3.396c0.099,-0.061 0.201,0.073 0.116,0.152l-4.55 4.23c-0.16,0.148 -0.263,0.348 -0.293,0.564l-0.155 1.149c-0.02,0.153 -0.236,0.168 -0.278,0.02l-0.596 -2.095c-0.068,-0.239 0.031,-0.494 0.243,-0.624z"/>
  </g>
 </g>
</svg>
