<?xml version="1.0" encoding="UTF-8"?>
<!DOCTYPE svg PUBLIC "-//W3C//DTD SVG 1.1//EN" "http://www.w3.org/Graphics/SVG/1.1/DTD/svg11.dtd">
<!-- Creator: CorelDRAW 2019 (64-Bit) -->
<svg xmlns="http://www.w3.org/2000/svg" xml:space="preserve" width="48px" height="48px" version="1.1" style="shape-rendering:geometricPrecision; text-rendering:geometricPrecision; image-rendering:optimizeQuality; fill-rule:evenodd; clip-rule:evenodd"
viewBox="0 0 100.4 100.4"
 xmlns:xlink="http://www.w3.org/1999/xlink">
 <defs>
  <style type="text/css">
   <![CDATA[
    .fil0 {fill:none}
    .fil1 {fill:white}
   ]]>
  </style>
 </defs>
 <g id="Layer_x0020_1">
  <metadata id="CorelCorpID_0Corel-Layer"/>
  <g id="_1510299292448">
   <rect class="fil0" width="100.4" height="100.4"/>
   <path class="fil1" d="M77.81 33.08c-2.05,0.9 -4.24,1.5 -6.52,1.79 2.34,-1.4 4.14,-3.61 4.98,-6.26 -2.19,1.3 -4.61,2.23 -7.18,2.74 -2.08,-2.21 -5.04,-3.58 -8.27,-3.58 -6.27,0 -11.31,5.08 -11.31,11.32 0,0.9 0.07,1.76 0.26,2.58 -9.41,-0.46 -17.74,-4.97 -23.34,-11.84 -0.97,1.7 -1.55,3.64 -1.55,5.72 0,3.92 2.02,7.4 5.03,9.41 -1.82,-0.03 -3.6,-0.56 -5.11,-1.39 0,0.03 0,0.08 0,0.12 0,5.5 3.92,10.07 9.07,11.12 -0.92,0.26 -1.93,0.38 -2.97,0.38 -0.72,0 -1.46,-0.04 -2.14,-0.2 1.46,4.49 5.63,7.78 10.58,7.89 -3.86,3.01 -8.75,4.83 -14.04,4.83 -0.93,0 -1.82,-0.04 -2.71,-0.16 5.01,3.24 10.96,5.08 17.37,5.08 20.83,0 32.22,-17.25 32.22,-32.21 0,-0.5 -0.02,-0.98 -0.04,-1.46 2.24,-1.6 4.13,-3.59 5.67,-5.88z"/>
  </g>
 </g>
</svg>
