<?xml version="1.0" encoding="UTF-8"?>
<!DOCTYPE svg PUBLIC "-//W3C//DTD SVG 1.1//EN" "http://www.w3.org/Graphics/SVG/1.1/DTD/svg11.dtd">
<!-- Creator: CorelDRAW 2019 (64-Bit) -->
<svg xmlns="http://www.w3.org/2000/svg" xml:space="preserve" width="48px" height="48px" version="1.1" style="shape-rendering:geometricPrecision; text-rendering:geometricPrecision; image-rendering:optimizeQuality; fill-rule:evenodd; clip-rule:evenodd"
viewBox="0 0 25.82 25.82"
 xmlns:xlink="http://www.w3.org/1999/xlink">
 <defs>
  <style type="text/css">
   <![CDATA[
    .fil0 {fill:none}
    .fil1 {fill:white}
   ]]>
  </style>
 </defs>
 <g id="Layer_x0020_1">
  <metadata id="CorelCorpID_0Corel-Layer"/>
  <g id="_1511799423856">
   <rect class="fil0" width="25.82" height="25.82"/>
   <path id="XMLID_470_" class="fil1" d="M13.04 5.81c-3.85,0 -6.98,3.1 -6.98,6.92 0,1.24 0.33,2.44 0.96,3.5l-1.2 3.54c-0.02,0.06 -0.01,0.14 0.04,0.18 0.04,0.04 0.09,0.06 0.13,0.06 0.02,0 0.04,0 0.06,-0.01l3.68 -1.17c1.01,0.54 2.15,0.82 3.31,0.82 3.84,0 6.97,-3.1 6.97,-6.92 0,-3.82 -3.13,-6.92 -6.97,-6.92zm3.28 8.16c-0.03,-0.01 -1.07,-0.52 -1.25,-0.59 -0.07,-0.03 -0.16,-0.05 -0.24,-0.05 -0.14,0 -0.26,0.07 -0.35,0.2 -0.1,0.16 -0.42,0.52 -0.51,0.63 -0.02,0.02 -0.03,0.03 -0.04,0.03 -0.01,0 -0.17,-0.06 -0.22,-0.08 -1.11,-0.49 -1.95,-1.65 -2.07,-1.84 -0.02,-0.03 -0.02,-0.04 -0.02,-0.04 0.01,-0.02 0.04,-0.05 0.06,-0.07 0.06,-0.06 0.12,-0.13 0.18,-0.2 0.03,-0.04 0.06,-0.07 0.08,-0.1 0.09,-0.1 0.13,-0.18 0.17,-0.27l0.02 -0.05c0.11,-0.21 0.02,-0.39 -0.01,-0.45 -0.02,-0.05 -0.46,-1.11 -0.51,-1.22 -0.11,-0.26 -0.26,-0.39 -0.46,-0.39 -0.02,0 0,0 -0.08,0.01 -0.1,0 -0.63,0.07 -0.86,0.22 -0.25,0.15 -0.67,0.65 -0.67,1.53 0,0.79 0.5,1.53 0.72,1.82 0,0.01 0.01,0.02 0.02,0.04 0.83,1.2 1.86,2.1 2.9,2.51 1,0.4 1.47,0.45 1.74,0.45 0,0 0,0 0,0 0.12,0 0.21,-0.01 0.29,-0.02l0.05 0c0.35,-0.03 1.11,-0.43 1.28,-0.91 0.14,-0.38 0.17,-0.79 0.08,-0.94 -0.06,-0.1 -0.17,-0.16 -0.3,-0.22zm-3.28 4.24c-1.09,0 -2.14,-0.31 -3.04,-0.9 -0.03,-0.02 -0.07,-0.03 -0.11,-0.03 -0.01,0 -0.03,0 -0.05,0l-1.85 0.59 0.6 -1.76c0.02,-0.05 0.01,-0.12 -0.03,-0.17 -0.69,-0.94 -1.05,-2.05 -1.05,-3.21 0,-3.02 2.48,-5.48 5.53,-5.48 3.04,0 5.52,2.46 5.52,5.48 0,3.02 -2.48,5.48 -5.52,5.48z"/>
  </g>
 </g>
</svg>
